<?xml version="1.0" standalone="no"?>
<!DOCTYPE svg PUBLIC "-//W3C//DTD SVG 20010904//EN"
 "http://www.w3.org/TR/2001/REC-SVG-20010904/DTD/svg10.dtd">
<svg version="1.0" xmlns="http://www.w3.org/2000/svg"
 width="37.000000pt" height="40.000000pt" viewBox="0 0 37.000000 40.000000"
 preserveAspectRatio="xMidYMid meet">
<metadata>SVG logo - Bootstrap Mint theme - Drupal 8</metadata>
<g transform="translate(0.000000,40.000000) scale(0.100000,-0.100000)"
fill="#1abc9c" stroke="none">
<path d="M160 375 c0 -8 -9 -20 -19 -27 -18 -11 -18 -12 6 -31 20 -16 24 -27
21 -53 -2 -19 0 -34 4 -34 17 0 48 -66 48 -102 0 -40 -37 -93 -74 -108 -15 -6
-6 -9 34 -9 100 -2 169 63 170 157 0 80 -30 123 -122 176 -27 15 -48 31 -48
36 0 6 -4 10 -10 10 -5 0 -10 -7 -10 -15z m85 -70 c75 -50 98 -118 67 -195
-11 -28 -69 -80 -89 -80 -16 0 -16 0 3 40 21 41 13 121 -15 151 -11 12 -19 34
-19 51 1 16 -4 34 -10 40 -7 7 -12 16 -12 20 0 16 22 8 75 -27z"/>
<path d="M64 295 c-53 -54 -66 -122 -35 -190 37 -80 90 -95 142 -39 36 39 33
98 -8 135 -18 15 -28 31 -23 34 18 11 10 54 -12 69 -30 21 -35 20 -64 -9z m56
-20 c5 3 5 -8 0 -25 -7 -26 -5 -33 20 -56 50 -48 30 -134 -32 -134 -54 0 -88
113 -53 180 16 32 48 55 53 39 2 -5 8 -7 12 -4z"/>
</g>
</svg>
