<svg xmlns="http://www.w3.org/2000/svg" viewBox="0 0 8.361 8">
  <defs>
    <style>
      .cls-1 {
        fill: #d70c45;
      }
    </style>
  </defs>
  <g id="star-light" transform="translate(0 -1.088)">
    <path id="Path_3249" data-name="Path 3249" class="cls-1" d="M2.965,9.088,2.89,9.065a.479.479,0,0,1-.284-.246c-.131-.265-.045-.563.453-1.965.046-.13.1-.279.151-.429l-.372.285c-1.093.839-1.376,1.036-1.645,1.036h0a.48.48,0,0,1-.478-.563c.05-.29.272-.463,1.5-1.307l.4-.273-.436.011c-.344.009-.7.019-1,.019-.251,0-.431-.007-.566-.021C.079,5.555,0,5.26,0,5.088c0-.543.6-.543,1.179-.543.3,0,.652.009,1,.019l.436.011-.4-.273C.987,3.457.765,3.284.715,2.994a.48.48,0,0,1,.478-.563c.269,0,.551.2,1.644,1.035l.373.285c-.053-.151-.105-.3-.152-.43-.5-1.4-.584-1.7-.453-1.964a.479.479,0,0,1,.283-.246l.069-.022h.078c.444,0,.539.322,1,1.869.044.15.1.323.148.5.052-.173.1-.346.148-.5.457-1.547.552-1.869,1-1.869H5.4l.075.023a.48.48,0,0,1,.284.247c.13.265.045.563-.453,1.965-.046.13-.1.279-.152.429l.371-.284C6.616,2.628,6.9,2.432,7.168,2.432a.48.48,0,0,1,.478.563c-.05.29-.272.463-1.5,1.307l-.4.273.436-.011c.344-.009.7-.019,1-.019.579,0,1.179,0,1.179.543s-.6.543-1.179.543c-.3,0-.653-.009-1-.019L5.751,5.6l.4.273c1.228.844,1.45,1.017,1.5,1.307a.48.48,0,0,1-.478.562c-.269,0-.551-.2-1.645-1.036l-.372-.285c.052.151.105.3.151.429.5,1.4.584,1.7.453,1.964a.479.479,0,0,1-.283.246L5.4,9.087H5.326c-.444,0-.539-.322-1-1.869-.044-.15-.1-.323-.148-.5-.052.173-.1.346-.148.5-.457,1.546-.552,1.868-1,1.869Z" transform="translate(0)"/>
  </g>
</svg>
