<svg id="Group_2949" data-name="Group 2949" xmlns="http://www.w3.org/2000/svg" viewBox="0 0 84.041 36.891">
  <defs>
    <style>
      .cls-1 {
        fill: #00bcca;
      }

      .cls-2 {
        fill: #181843;
      }

      .cls-3 {
        fill: #121a41;
      }
    </style>
  </defs>
  <g id="Group_855" data-name="Group 855" transform="translate(29.684 31.655)">
    <path id="Path_991" data-name="Path 991" class="cls-1" d="M100.3,109.5a.127.127,0,0,0,.118.118.163.163,0,0,0,.148-.089l.266-.592h1.42l.266.592c.03.059.059.118.148.118a.14.14,0,0,0,.148-.148c0-.03,0-.059-.03-.059l-1.035-2.278a.162.162,0,0,0-.178-.118h0a.2.2,0,0,0-.178.118l-1.035,2.278c-.059,0-.059.03-.059.059m.651-.858.592-1.331.592,1.331Zm3.136,1.568a1.031,1.031,0,0,0,.74-.266.946.946,0,0,0,.237-.68v-1.45a.148.148,0,1,0-.3,0v.207a.877.877,0,0,0-.74-.385.889.889,0,0,0-.888.888h0a.87.87,0,0,0,.888.888.834.834,0,0,0,.74-.414v.237a.622.622,0,0,1-.68.68,1.151,1.151,0,0,1-.68-.207c-.03,0-.03-.03-.059-.03a.127.127,0,0,0-.118.118.154.154,0,0,0,.059.118,1.166,1.166,0,0,0,.8.3m0-1.006a.638.638,0,0,1-.651-.651h0a.638.638,0,0,1,.651-.651.689.689,0,0,1,.71.651h0a.689.689,0,0,1-.71.651m1.775-.651a.651.651,0,0,1,.621-.651.632.632,0,0,1,.621.651Zm1.39.8a.109.109,0,0,0,.03-.089.127.127,0,0,0-.118-.118.109.109,0,0,0-.089.03.868.868,0,0,1-.562.207.7.7,0,0,1-.68-.651h1.39a.127.127,0,0,0,.118-.118.911.911,0,0,0-.888-.976.936.936,0,0,0-.917.976h0a.925.925,0,0,0,.947.976.848.848,0,0,0,.769-.237m.621.118a.148.148,0,1,0,.3,0V108.5a.552.552,0,0,1,.562-.592.506.506,0,0,1,.533.562v.976a.148.148,0,1,0,.3,0v-1.035a.707.707,0,0,0-.74-.769.722.722,0,0,0-.651.385v-.207a.148.148,0,1,0-.3,0v1.657Zm4.083-2.426a.148.148,0,0,0-.3,0v1.035a.9.9,0,0,0-.74-.414.935.935,0,0,0-.917.976h0a.918.918,0,0,0,.917.976.944.944,0,0,0,.74-.414v.266a.148.148,0,0,0,.3,0Zm-.976.858a.7.7,0,0,1,.68.74h0a.683.683,0,1,1-1.361,0h0a.7.7,0,0,1,.68-.74m2.16,1.745a.8.8,0,0,0,.68-.325v.177a.135.135,0,0,0,.148.118.14.14,0,0,0,.148-.148v-1.035a.736.736,0,0,0-.207-.562.833.833,0,0,0-.621-.207,1.934,1.934,0,0,0-.621.118c-.03.03-.089.059-.089.118a.127.127,0,0,0,.118.118h.059a1.259,1.259,0,0,1,.5-.118.492.492,0,0,1,.562.533v.059a1.778,1.778,0,0,0-.592-.089c-.473,0-.8.207-.8.621h0a.646.646,0,0,0,.71.621m.059-.237c-.266,0-.473-.148-.473-.385h0c0-.237.207-.385.562-.385a1.491,1.491,0,0,1,.562.089v.178c0,.3-.3.5-.651.5m2.663.03a.14.14,0,0,0,.148.148h.74a1.291,1.291,0,0,0,1.361-1.3h0a1.268,1.268,0,0,0-1.361-1.272h-.74a.14.14,0,0,0-.148.148Zm.3-.118v-2.041h.592a1,1,0,0,1,1.065,1.006h0a1,1,0,0,1-1.065,1.006h-.592Zm2.544-2.16c0,.089.059.148.178.148a.166.166,0,0,0,.178-.148v-.059c0-.089-.059-.148-.178-.148a.166.166,0,0,0-.178.148Zm0,2.308a.148.148,0,1,0,.3,0v-1.657a.148.148,0,1,0-.3,0Zm1.8.74a.915.915,0,0,0,.71-.266.946.946,0,0,0,.237-.68v-1.45a.148.148,0,1,0-.3,0v.207a.877.877,0,0,0-.74-.385.889.889,0,0,0-.888.888h0a.87.87,0,0,0,.888.888.834.834,0,0,0,.74-.414v.237a.622.622,0,0,1-.68.68,1.151,1.151,0,0,1-.68-.207c-.03,0-.03-.03-.059-.03a.127.127,0,0,0-.118.118.154.154,0,0,0,.059.118,1.3,1.3,0,0,0,.828.3m0-1.006a.638.638,0,0,1-.651-.651h0a.638.638,0,0,1,.651-.651.689.689,0,0,1,.71.651h0a.709.709,0,0,1-.71.651m1.6-2.041c0,.089.059.148.177.148a.166.166,0,0,0,.178-.148v-.059c0-.089-.059-.148-.178-.148a.166.166,0,0,0-.177.148Zm.03,2.308a.148.148,0,1,0,.3,0v-1.657a.148.148,0,1,0-.3,0Zm1.568.178a.591.591,0,0,0,.266-.059c.059-.03.089-.059.089-.118a.127.127,0,0,0-.118-.118.645.645,0,0,1-.178.03.3.3,0,0,1-.325-.325v-1.124h.5a.118.118,0,0,0,0-.237h-.5v-.444a.148.148,0,1,0-.3,0v.444h-.148a.118.118,0,1,0,0,.237h.148v1.154a.542.542,0,0,0,.562.562m1.42,0a.8.8,0,0,0,.68-.325v.177a.135.135,0,0,0,.148.118.14.14,0,0,0,.148-.148v-1.035a.736.736,0,0,0-.207-.562.833.833,0,0,0-.621-.207,1.934,1.934,0,0,0-.621.118c-.03.03-.089.059-.089.118a.127.127,0,0,0,.118.118h.059a1.259,1.259,0,0,1,.5-.118.492.492,0,0,1,.562.533v.059a1.778,1.778,0,0,0-.592-.089c-.473,0-.8.207-.8.621h0a.646.646,0,0,0,.71.621m.059-.237c-.266,0-.473-.148-.473-.385h0c0-.237.207-.385.562-.385a1.491,1.491,0,0,1,.562.089v.178a.6.6,0,0,1-.651.5m1.538.059a.148.148,0,1,0,.3,0v-2.426a.148.148,0,1,0-.3,0Zm2.041.592a.148.148,0,0,0,.3,0v-.828a.9.9,0,0,0,.74.414.918.918,0,0,0,.917-.976h0a.918.918,0,0,0-.917-.976.944.944,0,0,0-.74.414v-.3a.148.148,0,1,0-.3,0Zm.947-.68a.7.7,0,0,1-.68-.74h0a.683.683,0,1,1,1.361,0h0a.669.669,0,0,1-.68.74m2.071.266a.8.8,0,0,0,.68-.325v.177a.135.135,0,0,0,.148.118.14.14,0,0,0,.148-.148v-1.035a.736.736,0,0,0-.207-.562.833.833,0,0,0-.621-.207,1.934,1.934,0,0,0-.621.118c-.03.03-.089.059-.089.118a.127.127,0,0,0,.118.118h.059a1.259,1.259,0,0,1,.5-.118.492.492,0,0,1,.562.533v.059a1.779,1.779,0,0,0-.592-.089c-.473,0-.8.207-.8.621h0a.646.646,0,0,0,.71.621m.059-.237c-.266,0-.473-.148-.473-.385h0c0-.237.207-.385.562-.385a1.491,1.491,0,0,1,.562.089v.178a.62.62,0,0,1-.651.5m1.509.059a.148.148,0,0,0,.3,0v-.651c0-.562.3-.828.68-.858a.135.135,0,0,0,.118-.148.14.14,0,0,0-.148-.148.773.773,0,0,0-.651.5v-.355a.148.148,0,1,0-.3,0Zm1.953.178a.8.8,0,0,0,.68-.325v.177a.135.135,0,0,0,.148.118.14.14,0,0,0,.148-.148v-1.035a.736.736,0,0,0-.207-.562.833.833,0,0,0-.621-.207,1.934,1.934,0,0,0-.621.118c-.03.03-.089.059-.089.118a.127.127,0,0,0,.118.118h.059a1.259,1.259,0,0,1,.5-.118.492.492,0,0,1,.562.533v.059a1.778,1.778,0,0,0-.592-.089c-.473,0-.8.207-.8.621h0a.646.646,0,0,0,.71.621m.059-.237c-.266,0-.473-.148-.473-.385h0c0-.237.207-.385.562-.385a1.491,1.491,0,0,1,.562.089v.178a.6.6,0,0,1-.651.5m2.81.178h1.627a.118.118,0,1,0,0-.237h-1.479v-.888h1.3a.118.118,0,1,0,0-.237h-1.3v-.888h1.45a.118.118,0,0,0,0-.237h-1.6a.14.14,0,0,0-.148.148v2.278a.226.226,0,0,0,.148.059m2.9.059c.385,0,.68-.207.68-.562h0c0-.355-.325-.444-.621-.533-.266-.089-.5-.148-.5-.325h0c0-.148.148-.266.355-.266a1.2,1.2,0,0,1,.5.148h.059a.127.127,0,0,0,.118-.118.154.154,0,0,0-.059-.118,1.476,1.476,0,0,0-.621-.148c-.385,0-.651.207-.651.533h0c0,.355.325.444.621.533.237.059.473.148.473.325h0c0,.178-.177.3-.385.3a.9.9,0,0,1-.592-.207c-.03-.03-.03-.03-.059-.03a.127.127,0,0,0-.118.118c0,.059.03.089.059.089a1.136,1.136,0,0,0,.74.266m1.183.414a.148.148,0,1,0,.3,0v-.828a.9.9,0,0,0,.74.414.918.918,0,0,0,.917-.976h0a.918.918,0,0,0-.917-.976.944.944,0,0,0-.74.414v-.3a.148.148,0,1,0-.3,0Zm.976-.68a.7.7,0,0,1-.68-.74h0a.683.683,0,1,1,1.361,0h0a.7.7,0,0,1-.68.74m2.041.266a.8.8,0,0,0,.68-.325v.177a.135.135,0,0,0,.148.118.14.14,0,0,0,.148-.148v-1.035a.736.736,0,0,0-.207-.562.833.833,0,0,0-.621-.207,1.934,1.934,0,0,0-.621.118c-.03.03-.089.059-.089.118a.127.127,0,0,0,.118.118h.059a1.259,1.259,0,0,1,.5-.118.492.492,0,0,1,.562.533v.059a1.779,1.779,0,0,0-.592-.089c-.473,0-.8.207-.8.621h0a.646.646,0,0,0,.71.621m.059-.237c-.266,0-.473-.148-.473-.385h0c0-.237.207-.385.562-.385a1.491,1.491,0,0,1,.562.089v.178a.6.6,0,0,1-.651.5m1.509.059a.148.148,0,1,0,.3,0V108.5a.552.552,0,0,1,.562-.592.506.506,0,0,1,.533.562v.976a.148.148,0,1,0,.3,0v-1.035a.707.707,0,0,0-.74-.769.722.722,0,0,0-.651.385v-.207a.148.148,0,1,0-.3,0v1.657Zm.444-2.071a.162.162,0,0,1,.178-.118c.118,0,.325.148.5.148.148,0,.237-.089.325-.3v-.059a.078.078,0,0,0-.089-.089c-.03,0-.059.03-.089.059a.162.162,0,0,1-.178.118c-.118,0-.325-.148-.5-.148-.148,0-.237.089-.325.3v.059a.078.078,0,0,0,.089.089c.03,0,.059-.03.089-.059m2.4,2.248a.8.8,0,0,0,.68-.325v.177a.135.135,0,0,0,.148.118.14.14,0,0,0,.148-.148v-1.035a.736.736,0,0,0-.207-.562.833.833,0,0,0-.621-.207,1.934,1.934,0,0,0-.621.118c-.03.03-.089.059-.089.118a.127.127,0,0,0,.118.118h.059a1.259,1.259,0,0,1,.5-.118.492.492,0,0,1,.562.533v.059a1.779,1.779,0,0,0-.592-.089c-.473,0-.8.207-.8.621h0a.646.646,0,0,0,.71.621m.059-.237c-.266,0-.473-.148-.473-.385h0c0-.237.207-.385.562-.385a1.491,1.491,0,0,1,.562.089v.178a.62.62,0,0,1-.651.5" transform="translate(-100.3 -106.9)"/>
  </g>
  <g id="Group_856" data-name="Group 856" transform="translate(29.98 22.809)">
    <path id="Path_992" data-name="Path 992" class="cls-2" d="M101.773,82.828a.509.509,0,0,1-.473-.473V77.533a.474.474,0,0,1,.947,0v4.822a.509.509,0,0,1-.473.473m5.591-.178h0l-2.9-3.757v3.461a.474.474,0,0,1-.947,0V77.5a.413.413,0,0,1,.089-.266.46.46,0,0,1,.237-.177.5.5,0,0,1,.3,0,.46.46,0,0,1,.237.177l2.9,3.757V77.5a.474.474,0,0,1,.947,0V82.68h0l-.03.03v.03l-.03.03a.029.029,0,0,1-.03.03l-.03.03-.03.03h0c-.03.03-.03.03-.059.03h0c-.03,0-.03.03-.059.03h0c-.03,0-.059,0-.059.03h-.355a.029.029,0,0,1-.03-.03h-.03l-.03-.03h0c-.059-.237-.059-.237-.089-.237h0m3.4-4.674h-1.213a.474.474,0,0,1,0-.947h3.373a.474.474,0,0,1,0,.947h-1.213v4.378a.474.474,0,0,1-.947,0V77.976Zm6.775,3.876a.474.474,0,0,1,0,.947h-2.929a.509.509,0,0,1-.473-.473V77.5a.424.424,0,0,1,.148-.325.475.475,0,0,1,.325-.148h2.929a.474.474,0,0,1,0,.947h-2.455v1.479h1.775a.474.474,0,0,1,0,.947h-1.775v1.479h2.455Zm1.864-4.822a.509.509,0,0,1,.473.473v4.378h2.13a.474.474,0,0,1,0,.947h-2.6a.509.509,0,0,1-.473-.473V77.5a.475.475,0,0,1,.148-.325.347.347,0,0,1,.325-.148m4.349,5.8a.509.509,0,0,1-.473-.473V77.533a.474.474,0,0,1,.947,0v4.822a.509.509,0,0,1-.473.473m4.29-.03a2.9,2.9,0,0,1,0-5.8,2.827,2.827,0,0,1,1.745.592.371.371,0,0,1,.178.325.533.533,0,0,1-.089.355.371.371,0,0,1-.325.178.409.409,0,0,1-.355-.089,1.92,1.92,0,0,0-1.183-.414,1.923,1.923,0,1,0,0,3.846,1.886,1.886,0,0,0,1.3-.5.029.029,0,0,0,.03-.03V80.2h-1.568a.424.424,0,0,1-.325-.148.474.474,0,0,1,.325-.8h2.071a.509.509,0,0,1,.473.473V82.3a.509.509,0,0,1-.473.473h0a.5.5,0,0,1-.3-.089.46.46,0,0,1-.178-.237,2.64,2.64,0,0,1-1.331.355m6.863-.947a.474.474,0,0,1,0,.947h-2.929a.509.509,0,0,1-.473-.473V77.5a.424.424,0,0,1,.148-.325.475.475,0,0,1,.325-.148h2.929a.474.474,0,0,1,0,.947h-2.455v1.479h1.775a.474.474,0,0,1,0,.947h-1.775v1.479h2.455Zm5.236.8h0l-2.9-3.757v3.461a.474.474,0,0,1-.947,0V77.5a.413.413,0,0,1,.089-.266.46.46,0,0,1,.237-.177.5.5,0,0,1,.3,0,.46.46,0,0,1,.237.177l2.9,3.757V77.5a.474.474,0,0,1,.947,0V82.68h0l-.03.03v.03l-.03.03a.029.029,0,0,1-.03.03l-.03.03a.029.029,0,0,0-.03.03h0c-.03.03-.03.03-.059.03h0c-.03,0-.03.03-.059.03h0c-.03,0-.059,0-.059.03h-.355a.029.029,0,0,1-.03-.03h-.03l-.03-.03h0c-.059-.237-.059-.237-.089-.237h0m3.4-4.674h-1.213a.474.474,0,0,1,0-.947h3.373a.474.474,0,0,1,0,.947h-1.213v4.378a.474.474,0,0,1-.947,0V77.976Zm6.775,3.876a.474.474,0,0,1,0,.947h-2.929a.509.509,0,0,1-.473-.473V77.5a.424.424,0,0,1,.148-.325.475.475,0,0,1,.325-.148h2.929a.474.474,0,0,1,0,.947h-2.455v1.479h1.775a.474.474,0,0,1,0,.947h-1.775v1.479h2.455Zm5.029-.769a1.653,1.653,0,0,1-.592,1.213,1.886,1.886,0,0,1-1.3.5,2.27,2.27,0,0,1-1.183-.3,1.616,1.616,0,0,1-.8-.976.391.391,0,0,1,.059-.355.428.428,0,0,1,.3-.207.391.391,0,0,1,.355.059.428.428,0,0,1,.207.3.661.661,0,0,0,.385.414,1.612,1.612,0,0,0,.651.148.975.975,0,0,0,.651-.237.88.88,0,0,0,.3-.592.49.49,0,0,0-.148-.385,1.114,1.114,0,0,0-.828-.266h0a2.055,2.055,0,0,1-1.509-.562,1.426,1.426,0,0,1-.414-1.065,1.768,1.768,0,0,1,.592-1.243,1.886,1.886,0,0,1,1.3-.5,2.27,2.27,0,0,1,1.183.3,1.616,1.616,0,0,1,.8.976.509.509,0,0,1-.059.355.374.374,0,0,1-.3.207.391.391,0,0,1-.355-.059.428.428,0,0,1-.207-.3.639.639,0,0,0-.414-.414,1.506,1.506,0,0,0-.651-.148.975.975,0,0,0-.651.237.88.88,0,0,0-.3.592.623.623,0,0,0,.148.385,1.114,1.114,0,0,0,.828.266h.03a2.055,2.055,0,0,1,1.509.562,1.422,1.422,0,0,1,.414,1.095" transform="translate(-101.3 -77)"/>
  </g>
  <g id="Group_857" data-name="Group 857" transform="translate(29.654 7.13)">
    <path id="Path_993" data-name="Path 993" class="cls-2" d="M103.1,29.8a2.9,2.9,0,0,1,0-5.8,2.976,2.976,0,0,1,1.775.592.451.451,0,0,1,.177.325.534.534,0,0,1-.089.355.371.371,0,0,1-.325.178.409.409,0,0,1-.355-.089,1.92,1.92,0,0,0-1.183-.414,1.923,1.923,0,1,0,0,3.846,1.886,1.886,0,0,0,1.3-.5.482.482,0,0,1,.651.71,2.635,2.635,0,0,1-1.953.8m3.491,0a.509.509,0,0,1-.473-.473V24.5a.474.474,0,0,1,.947,0v4.822a.475.475,0,0,1-.148.325.377.377,0,0,1-.325.148m5.325-5.8a.509.509,0,0,1,.473.473v3.254a2.01,2.01,0,0,1-.592,1.45,1.971,1.971,0,0,1-1.45.621,1.924,1.924,0,0,1-1.45-.621,1.971,1.971,0,0,1-.621-1.45V24.473a.474.474,0,0,1,.947,0v3.254a1.111,1.111,0,0,0,1.124,1.124,1.2,1.2,0,0,0,.8-.325,1.092,1.092,0,0,0,.325-.8V24.473a.475.475,0,0,1,.148-.325.326.326,0,0,1,.3-.148m2.692,4.852h.74a1.787,1.787,0,0,0,1.361-.562,1.923,1.923,0,0,0-1.361-3.284h-.74Zm-.473.947a.509.509,0,0,1-.473-.473V24.473a.509.509,0,0,1,.473-.473h1.213a2.9,2.9,0,0,1,0,5.8Zm8.195-2.189-.769-1.864-.769,1.864Zm-2.958,2.16a.581.581,0,0,1-.266-.266.377.377,0,0,1,0-.355l.5-1.243h0l1.479-3.58a.029.029,0,0,1,.03-.03v-.03a.029.029,0,0,1,.03-.03v-.03l.03-.03v-.03l.03-.03h.03l.03-.03h.03a.029.029,0,0,0,.03-.03h.5c.03,0,.059.03.089.03h.03a.029.029,0,0,1,.03.03H122a.029.029,0,0,1,.03.03h.03l.03.03v.03l.03.03v.03l.03.03v.059l.03.03,1.479,3.58h0l.5,1.243a.377.377,0,0,1,0,.355.58.58,0,0,1-.266.266.375.375,0,0,1-.178.03.443.443,0,0,1-.444-.3l-.385-.947h-2.337l-.385.947a.443.443,0,0,1-.444.3h-.089a2.51,2.51,0,0,1-.266-.089m6.479-.917h.74a1.787,1.787,0,0,0,1.361-.562,1.923,1.923,0,0,0-1.361-3.284h-.74Zm-.473.947a.509.509,0,0,1-.473-.473V24.473a.509.509,0,0,1,.473-.473h1.213a2.9,2.9,0,0,1,0,5.8Zm8.7-.947a.474.474,0,0,1,0,.947h-2.929a.509.509,0,0,1-.473-.473V24.473a.424.424,0,0,1,.148-.325.475.475,0,0,1,.325-.148h2.929a.474.474,0,0,1,0,.947h-2.455v1.479h1.775a.474.474,0,0,1,0,.947h-1.775v1.479Zm5.029-.769a1.653,1.653,0,0,1-.592,1.213,1.886,1.886,0,0,1-1.3.5,2.27,2.27,0,0,1-1.183-.3,1.616,1.616,0,0,1-.8-.976.391.391,0,0,1,.059-.355.428.428,0,0,1,.3-.207.391.391,0,0,1,.355.059.428.428,0,0,1,.207.3.661.661,0,0,0,.385.414,1.612,1.612,0,0,0,.651.148.975.975,0,0,0,.651-.237.88.88,0,0,0,.3-.592.623.623,0,0,0-.148-.385,1.114,1.114,0,0,0-.828-.266h0a2.055,2.055,0,0,1-1.509-.562,1.426,1.426,0,0,1-.414-1.065,1.768,1.768,0,0,1,.592-1.243,1.886,1.886,0,0,1,1.3-.5,2.27,2.27,0,0,1,1.183.3,1.616,1.616,0,0,1,.8.976.509.509,0,0,1-.059.355.374.374,0,0,1-.3.207.391.391,0,0,1-.355-.059.428.428,0,0,1-.207-.3.639.639,0,0,0-.414-.414,1.506,1.506,0,0,0-.651-.148.975.975,0,0,0-.651.237.88.88,0,0,0-.3.592.623.623,0,0,0,.148.385,1.114,1.114,0,0,0,.828.266h.03a2.055,2.055,0,0,1,1.509.562,1.422,1.422,0,0,1,.414,1.095" transform="translate(-100.2 -24)"/>
  </g>
  <g id="Group_858" data-name="Group 858" transform="translate(0 0)">
    <path id="Path_994" data-name="Path 994" class="cls-3" d="M23.433,12.68a.887.887,0,0,1-.858-.621,10.464,10.464,0,0,0-1.006-2.278.9.9,0,0,1,.3-1.213l1.243-.74c-.089-.118-.148-.237-.237-.355l-.592.414a.916.916,0,0,1-1.213-.178.154.154,0,0,1-.059-.118c-.207-.237-.444-.473-.68-.71A.892.892,0,0,1,19.262,7c-.059-.03-.089-.059-.148-.089a14.19,14.19,0,0,0-1.538-1.065.883.883,0,0,1-.385-1.095,8.133,8.133,0,0,0-1.065-.444.88.88,0,1,1,.592-1.657,13.865,13.865,0,0,1,2.13.976.918.918,0,0,1,.414.533.893.893,0,0,1-.059.621c.118.089.237.148.355.237A.914.914,0,0,1,20.8,4.929c.03.03.059.03.059.059a10.668,10.668,0,0,1,1.035.976l.621-.444a.873.873,0,0,1,1.183.148,12.4,12.4,0,0,1,1.39,1.953.9.9,0,0,1-.3,1.213l-1.3.769a11.406,11.406,0,0,1,.74,1.893.856.856,0,0,1-.592,1.095C23.611,12.68,23.522,12.68,23.433,12.68ZM.861,12.562a.819.819,0,0,1-.266-.03A.9.9,0,0,1,0,11.408a9.823,9.823,0,0,1,.71-1.745.931.931,0,0,1-.385-.5.906.906,0,0,1,.089-.68,12.634,12.634,0,0,1,.888-1.3L.417,6.261a.868.868,0,0,1-.03-1.183A15.4,15.4,0,0,1,2.1,3.391a.888.888,0,0,1,1.243.118L5.18,5.7c.03.03.059.089.089.118A.918.918,0,0,1,5.032,7a.873.873,0,0,1-1.183-.148L2.606,5.343l-.3.3.828.888a.644.644,0,0,1,.148.237.854.854,0,0,1-.148,1.006c-.237.3-.473.592-.71.917a1.051,1.051,0,0,1,.325.473.906.906,0,0,1-.089.68A10.1,10.1,0,0,0,1.689,12,.848.848,0,0,1,.861,12.562ZM5.772,5.284A.858.858,0,0,1,5,4.841a.906.906,0,0,1,.325-1.213A13.408,13.408,0,0,1,7.517,2.622.928.928,0,0,1,8.641,3.1c.148-.03.3-.089.444-.118L8.819,1.113A.847.847,0,0,1,9,.462.952.952,0,0,1,9.588.107c.059,0,1.568-.207,2.455-.207a.879.879,0,0,1,.888.828l.089,1.095A13.1,13.1,0,0,1,14.528,2a.881.881,0,0,1-.237,1.745.109.109,0,0,1-.089-.03,11.222,11.222,0,0,0-1.982-.178.879.879,0,0,1-.888-.828l-.059-1.035a2.3,2.3,0,0,0-.473.059l.266,1.775a1.055,1.055,0,0,1-.148.651.878.878,0,0,1-.592.385,12.834,12.834,0,0,0-1.834.473A.889.889,0,0,1,7.4,4.574c-.355.148-.68.325-1.035.5h-.03l-.03.03A.929.929,0,0,1,5.772,5.284Z" transform="translate(0.038 0.1)"/>
  </g>
  <g id="Group_859" data-name="Group 859" transform="translate(1.609 5.296)">
    <path id="Path_995" data-name="Path 995" class="cls-3" d="M7.915,49.4a1.343,1.343,0,0,1-.947-.385,1.322,1.322,0,0,1,0-1.893,12.257,12.257,0,0,1,5.917-3.343C10.4,40.639,5.4,33.657,5.4,28.361A10.5,10.5,0,0,1,15.814,17.8,10.531,10.531,0,0,1,26.227,28.332c.03,5.266-5,12.248-7.514,15.413a12.538,12.538,0,0,1,5.946,3.373,1.339,1.339,0,1,1-1.893,1.893,9.758,9.758,0,0,0-6.952-2.9h-.03a9.741,9.741,0,0,0-6.923,2.9A1.25,1.25,0,0,1,7.915,49.4Zm7.9-28.9a7.829,7.829,0,0,0-7.751,7.9c0,2.308,1.361,5.591,3.905,9.526a60.02,60.02,0,0,0,3.846,5.236c2.929-3.461,7.781-10.384,7.781-14.762A7.873,7.873,0,0,0,15.814,20.492Zm0,12.337a4.5,4.5,0,1,1,4.467-4.5A4.489,4.489,0,0,1,15.814,32.829Zm0-6.3a1.838,1.838,0,0,0-1.8,1.834,1.8,1.8,0,1,0,3.609,0A1.8,1.8,0,0,0,15.814,26.527Z" transform="translate(-5.4 -17.8)"/>
  </g>
  <g id="Group_860" data-name="Group 860" transform="translate(30.069 15.058)">
    <path id="Path_996" data-name="Path 996" class="cls-1" d="M101.6,56.007V51.3a.467.467,0,0,1,.414-.5h3.106a.484.484,0,0,1,0,.947H102.4v1.479h1.8a.484.484,0,0,1,0,.947h-1.8V55.5H105a.484.484,0,0,1,0,.947h-2.988c-.237.059-.414-.177-.414-.444" transform="translate(-101.6 -50.8)"/>
  </g>
  <g id="Group_861" data-name="Group 861" transform="translate(37.405 15.058)">
    <path id="Path_997" data-name="Path 997" class="cls-1" d="M126.9,56.391a.518.518,0,0,1-.5-.5V51.3a.5.5,0,0,1,1.006,0v4.586a.518.518,0,0,1-.5.5" transform="translate(-126.4 -50.8)"/>
  </g>
  <g id="Group_862" data-name="Group 862" transform="translate(45.245 15.058)">
    <path id="Path_998" data-name="Path 998" class="cls-1" d="M156.42,55.918a.467.467,0,0,1-.473.473H153.4a.518.518,0,0,1-.5-.5V51.3a.5.5,0,0,1,1.006,0v4.142h2.041a.45.45,0,0,1,.473.473" transform="translate(-152.9 -50.8)"/>
  </g>
  <g id="Group_863" data-name="Group 863" transform="translate(49.489 14.999)">
    <path id="Path_999" data-name="Path 999" class="cls-1" d="M170.456,53.973l-.68-1.6-.68,1.6Zm1.479,2.248a.469.469,0,0,1-.651-.266l-.444-1.006h-2.189l-.444,1.006a.5.5,0,1,1-.917-.385l1.982-4.674a.527.527,0,0,1,.947,0L172.2,55.57a.486.486,0,0,1-.266.651" transform="translate(-167.245 -50.6)"/>
  </g>
  <g id="Group_864" data-name="Group 864" transform="translate(39.902 14.999)">
    <path id="Path_1000" data-name="Path 1000" class="cls-1" d="M138.733,54.653a1.653,1.653,0,0,1-.592,1.213,1.886,1.886,0,0,1-1.3.5,2.27,2.27,0,0,1-1.183-.3,1.616,1.616,0,0,1-.8-.976.391.391,0,0,1,.059-.355.428.428,0,0,1,.3-.207.391.391,0,0,1,.355.059.428.428,0,0,1,.207.3.661.661,0,0,0,.385.414,1.612,1.612,0,0,0,.651.148.975.975,0,0,0,.651-.237.88.88,0,0,0,.3-.592.623.623,0,0,0-.148-.385,1.114,1.114,0,0,0-.828-.266h0a2.055,2.055,0,0,1-1.509-.562,1.426,1.426,0,0,1-.414-1.065,1.769,1.769,0,0,1,.592-1.243,1.886,1.886,0,0,1,1.3-.5,2.27,2.27,0,0,1,1.183.3,1.616,1.616,0,0,1,.8.976.509.509,0,0,1-.059.355.374.374,0,0,1-.3.207.391.391,0,0,1-.355-.059.428.428,0,0,1-.207-.3.639.639,0,0,0-.414-.414,1.506,1.506,0,0,0-.651-.148.975.975,0,0,0-.651.237.88.88,0,0,0-.3.592.623.623,0,0,0,.148.385,1.114,1.114,0,0,0,.828.266h.03a2.055,2.055,0,0,1,1.509.562,1.422,1.422,0,0,1,.414,1.095" transform="translate(-134.84 -50.6)"/>
  </g>
  <g id="Group_865" data-name="Group 865" transform="translate(55.286 14.999)">
    <path id="Path_1001" data-name="Path 1001" class="cls-1" d="M190.733,54.653a1.653,1.653,0,0,1-.592,1.213,1.886,1.886,0,0,1-1.3.5,2.27,2.27,0,0,1-1.183-.3,1.616,1.616,0,0,1-.8-.976.391.391,0,0,1,.059-.355.428.428,0,0,1,.3-.207.391.391,0,0,1,.355.059.428.428,0,0,1,.207.3.661.661,0,0,0,.385.414,1.612,1.612,0,0,0,.651.148.975.975,0,0,0,.651-.237.88.88,0,0,0,.3-.592.623.623,0,0,0-.148-.385,1.114,1.114,0,0,0-.828-.266h0a2.055,2.055,0,0,1-1.509-.562,1.426,1.426,0,0,1-.414-1.065,1.769,1.769,0,0,1,.592-1.243,1.886,1.886,0,0,1,1.3-.5,2.27,2.27,0,0,1,1.183.3,1.616,1.616,0,0,1,.8.976.509.509,0,0,1-.059.355.374.374,0,0,1-.3.207.391.391,0,0,1-.355-.059.428.428,0,0,1-.207-.3.639.639,0,0,0-.414-.414,1.506,1.506,0,0,0-.651-.148.975.975,0,0,0-.651.237.88.88,0,0,0-.3.592.623.623,0,0,0,.148.385,1.114,1.114,0,0,0,.828.266h.03a2.055,2.055,0,0,1,1.509.562,1.422,1.422,0,0,1,.414,1.095" transform="translate(-186.84 -50.6)"/>
  </g>
</svg>
