<svg xmlns="http://www.w3.org/2000/svg" viewBox="0 0 53.07 16.97"><defs><style>.d0695b0e-5a6e-49fa-9d1f-c5501a4c7aae{fill:#231f20;}.\36 879cb72-0758-452e-abb6-561f56f35fbc{fill:#db0032;}</style></defs><title>Recurso 1</title><g id="3c84fad8-378d-46f1-99d1-084be3b5bfb4" data-name="Capa 2"><g id="d59d6cd6-4669-4b5d-ab9d-ee0fa3ae8780" data-name="Group 2948"><g id="415dfad9-fb42-48d6-ae84-c15792ca9749" data-name="Group 2549"><g id="f884dd66-8810-44b4-a1b2-4244aa5059ed" data-name="Group 2543"><path id="3d86d790-db61-4ebf-9b61-b8c2b136f783" data-name="Path 2997" class="d0695b0e-5a6e-49fa-9d1f-c5501a4c7aae" d="M7.09,4.85a3.38,3.38,0,0,0-2-.5A3.35,3.35,0,0,0,2.33,5.72V4.58H0V16.43H2.33V9.66c0-2,.86-3,2.34-3a3.78,3.78,0,0,1,1.16.16A9.42,9.42,0,0,1,7.09,4.84"/></g><g id="ccfe9362-0eee-4b7c-8f6b-861783ef3367" data-name="Group 2544"><path id="d3539324-bde5-4010-8738-96b8ec786e55" data-name="Path 2998" class="d0695b0e-5a6e-49fa-9d1f-c5501a4c7aae" d="M14.24,9.42H8.71c.2-1.9,1.15-3,2.73-3,1.91,0,2.68,1.34,2.8,3m2.34.85c0-3.2-1.63-5.94-5-5.94-3.08,0-5.23,2.16-5.23,6.17s2.37,6.16,5.15,6.16a5.56,5.56,0,0,0,4.1-1.56l-1.38-1.49a4.2,4.2,0,0,1-2.58,1c-1.46,0-2.75-1-3-3.26H16.5a5.89,5.89,0,0,0,.09-1"/></g><g id="330d711f-692c-48b8-9684-03465e7485f6" data-name="Group 2545"><path id="1714cd28-a7a3-4e4b-a8ba-ae586e0a8444" data-name="Path 2999" class="d0695b0e-5a6e-49fa-9d1f-c5501a4c7aae" d="M25.38,13a3.65,3.65,0,0,1-2.7,1.51C21,14.54,20,13.23,20,10.25c0-2.51.9-3.76,2.58-3.76a3.78,3.78,0,0,1,2.79,1.56Zm2.29,3.4V0l-2.3,1.2V5.7a4.31,4.31,0,0,0-3-1.36c-2.48,0-4.7,1.91-4.7,6,0,4.51,2,6.36,4.58,6.36a4.57,4.57,0,0,0,3.11-1.37v1.13h2.3Z"/></g><g id="3b29136f-cb61-4939-b01a-e063f2f640e5" data-name="Group 2546"><path id="76d52ff4-da2f-422b-8832-ede7e51035a8" data-name="Path 3000" class="d0695b0e-5a6e-49fa-9d1f-c5501a4c7aae" d="M41.16,9.42H35.64c.2-1.9,1.15-3,2.71-3,1.94,0,2.71,1.34,2.81,3m2.37.85c0-3.2-1.64-5.94-5-5.94-3.08,0-5.22,2.16-5.22,6.17s2.36,6.16,5.15,6.16a5.59,5.59,0,0,0,4.1-1.56l-1.39-1.49a4.2,4.2,0,0,1-2.58,1c-1.44,0-2.74-1-3-3.26h7.87a7.15,7.15,0,0,0,.08-1"/></g><g id="3ed4d486-1392-43d9-8766-bf94dbbc2a43" data-name="Group 2547"><path id="fe1b3dee-3fae-48f7-9948-1901f22048dc" data-name="Path 3001" class="d0695b0e-5a6e-49fa-9d1f-c5501a4c7aae" d="M53.07,13.19c0-2.23-1.36-3-4-4-1.8-.7-2.2-1.12-2.2-1.71s.5-1.08,1.63-1.08a5.18,5.18,0,0,1,3.09,1l1-1.78a7.26,7.26,0,0,0-4-1.31c-2.37,0-4.05,1.11-4.05,3.22,0,1.87.93,2.73,3.49,3.73,1.72.65,2.77,1.07,2.77,2s-.7,1.31-2.18,1.31a6.38,6.38,0,0,1-3.47-1.16L44.06,15.2a8.09,8.09,0,0,0,4.56,1.5c2.32,0,4.45-.9,4.45-3.52"/></g><g id="2fd6086f-5591-4687-be9a-f6b2eec439d6" data-name="Group 2548"><path id="4252564c-ede4-4c90-9d39-91a4d713b585" data-name="Path 3002" class="6879cb72-0758-452e-abb6-561f56f35fbc" d="M29,15a2,2,0,1,1,2,2h0a2,2,0,0,1-2-2"/></g></g></g></g></svg>