<svg id="Group_2954" data-name="Group 2954" xmlns="http://www.w3.org/2000/svg" viewBox="0 0 163.156 36.891">
  <defs>
    <style>
      .cls-1 {
        fill: #034ea2;
      }

      .cls-2 {
        fill: #fff200;
      }

      .cls-3 {
        fill: #231f20;
      }
    </style>
  </defs>
  <g id="Group_867" data-name="Group 867">
    <rect id="Rectangle_1072" data-name="Rectangle 1072" class="cls-1" width="54.272" height="36.891"/>
  </g>
  <g id="Group_868" data-name="Group 868" transform="translate(11.757 3.067)">
    <path id="Path_1002" data-name="Path 1002" class="cls-2" d="M17.293,12.631,15.93,11.609l1.7-.085.6-1.789.767,1.7,1.7-.17-1.363,1.193.682,1.7L18.4,13.313,16.867,14.42ZM22.15,8.116,20.786,7.093l1.7-.085.6-1.789.767,1.7,1.7-.085L24.194,8.03l.6,1.7L23.257,8.8,21.724,9.9Zm6.56-1.534L27.347,5.56l1.7-.17L29.562,3.6l.767,1.7,1.7-.085L30.755,6.5l.6,1.7-1.534-.937L28.284,8.371Zm6.22,1.96L33.566,7.519l1.7-.085.6-1.789.767,1.7,1.7-.085L36.974,8.456l.682,1.7-1.619-.937L34.5,10.331Zm4.516,4.686L39.019,15.1l1.534-1.108,1.534.937-.682-1.7,1.448-1.193-1.789.085-.767-1.7-.511,1.789L38,12.29Zm1.7,6.731-1.363-1.022,1.7-.085.6-1.789.767,1.7,1.7-.085-1.363,1.193.682,1.7-1.619-.937-1.534,1.108Zm-1.96,6.3-1.448-1.022,1.7-.085.6-1.789.767,1.7,1.7-.085-1.278,1.193.682,1.7L40.3,26.945l-1.619,1.108Zm-4.942,4.6-1.363-1.022,1.7-.085.6-1.789.767,1.7,1.7-.085-1.363,1.193.682,1.7-1.619-.937-1.534,1.108Zm-6.56,1.619L26.324,31.46l1.7-.085.6-1.789.767,1.7,1.7-.085L29.732,32.4l.682,1.7L28.8,33.079l-1.534,1.108Zm-6.39-1.96-1.363-.937,1.7-.085.6-1.789.767,1.7,1.7-.085-1.363,1.193.682,1.7L22.405,31.2l-1.534,1.108Zm-4.6-4.856-1.363-1.022,1.7-.085.511-1.789.767,1.7,1.7-.085-1.363,1.193.6,1.7-1.534-.937-1.534,1.108Zm-1.448-6.56L13.8,18.084,15.5,18l.6-1.789.767,1.7,1.7-.085-1.363,1.193.6,1.7-1.534-.937-1.448,1.193Z" transform="translate(-13.8 -3.6)"/>
  </g>
  <g id="Group_874" data-name="Group 874" transform="translate(59.469 2.982)">
    <g id="Group_869" data-name="Group 869" transform="translate(0.17)">
      <path id="Path_1003" data-name="Path 1003" class="cls-3" d="M70,6h1.448v4.175a3.178,3.178,0,0,0,.17,1.022,1.131,1.131,0,0,0,1.108.6c.6,0,.937-.17,1.108-.6A2.447,2.447,0,0,0,74,10.175V6h1.448v4.175a3.379,3.379,0,0,1-.341,1.7,3.123,3.123,0,0,1-4.771,0,3.184,3.184,0,0,1-.341-1.7V6Z" transform="translate(-70 -3.87)"/>
      <path id="Path_1004" data-name="Path 1004" class="cls-3" d="M77.9,6h1.448l2.641,4.686V6h1.278v6.731H81.9L79.178,7.96v4.771H77.9Z" transform="translate(-71.169 -3.87)"/>
      <path id="Path_1005" data-name="Path 1005" class="cls-3" d="M87.063,12.731H85.7V6h1.363Z" transform="translate(-72.324 -3.87)"/>
      <path id="Path_1006" data-name="Path 1006" class="cls-3" d="M93.953,11.764a3.583,3.583,0,0,1-4.43,0A3.67,3.67,0,0,1,88.5,8.953a3.67,3.67,0,0,1,1.022-2.812,3.583,3.583,0,0,1,4.43,0,3.547,3.547,0,0,1,1.022,2.812A3.67,3.67,0,0,1,93.953,11.764ZM93.1,10.742a2.8,2.8,0,0,0,.511-1.789A2.8,2.8,0,0,0,93.1,7.164a1.856,1.856,0,0,0-2.726,0,2.8,2.8,0,0,0-.511,1.789,2.8,2.8,0,0,0,.511,1.789,1.856,1.856,0,0,0,2.726,0ZM93.356,3.5,91.993,4.863h-.937L91.908,3.5Z" transform="translate(-72.738 -3.5)"/>
      <path id="Path_1007" data-name="Path 1007" class="cls-3" d="M97.3,6h1.448l2.641,4.686V6h1.278v6.731H101.3L98.578,7.96v4.771H97.3Z" transform="translate(-74.041 -3.87)"/>
      <path id="Path_1008" data-name="Path 1008" class="cls-3" d="M113.256,7.193h-3.493V8.641H113V9.834h-3.238v1.7h3.749v1.193H108.4V6h4.942V7.193Z" transform="translate(-75.684 -3.87)"/>
      <path id="Path_1009" data-name="Path 1009" class="cls-3" d="M115.6,6h1.448v4.175a3.177,3.177,0,0,0,.17,1.022,1.131,1.131,0,0,0,1.108.6c.6,0,.937-.17,1.108-.6a2.447,2.447,0,0,0,.17-1.022V6h1.448v4.175a3.379,3.379,0,0,1-.341,1.7,3.123,3.123,0,0,1-4.771,0,3.184,3.184,0,0,1-.341-1.7V6Z" transform="translate(-76.749 -3.87)"/>
      <path id="Path_1010" data-name="Path 1010" class="cls-3" d="M127.745,6.17a1.145,1.145,0,0,1,.6.511,1.373,1.373,0,0,1,.341.6,1.661,1.661,0,0,1,.085.682,1.942,1.942,0,0,1-.256.937,1.5,1.5,0,0,1-.767.682,1.444,1.444,0,0,1,.682.511c.17.17.17.6.17,1.022v1.022a.469.469,0,0,0,.256.426v.17h-1.534c0-.17-.085-.256-.085-.341,0-.17-.085-.341-.085-.6v-.6a1.131,1.131,0,0,0-.256-.852,1.041,1.041,0,0,0-.767-.256h-1.363v2.641H123.4V6h3.238A2.961,2.961,0,0,1,127.745,6.17Zm-2.9,1.022V8.982h1.534a1.465,1.465,0,0,0,.682-.085.8.8,0,0,0,.426-.767.94.94,0,0,0-.426-.852,1.465,1.465,0,0,0-.682-.085Z" transform="translate(-77.904 -3.87)"/>
      <path id="Path_1011" data-name="Path 1011" class="cls-3" d="M136.553,12.09a3.583,3.583,0,0,1-4.43,0A3.67,3.67,0,0,1,131.1,9.278a3.67,3.67,0,0,1,1.022-2.812,3.583,3.583,0,0,1,4.43,0,3.547,3.547,0,0,1,1.022,2.812A3.67,3.67,0,0,1,136.553,12.09Zm-.937-1.022a2.8,2.8,0,0,0,.511-1.789,2.8,2.8,0,0,0-.511-1.789,1.856,1.856,0,0,0-2.726,0,2.8,2.8,0,0,0-.511,1.789,2.8,2.8,0,0,0,.511,1.789,1.589,1.589,0,0,0,1.363.6A1.493,1.493,0,0,0,135.616,11.068Z" transform="translate(-79.043 -3.826)"/>
      <path id="Path_1012" data-name="Path 1012" class="cls-3" d="M144.43,9.834a2.544,2.544,0,0,1-1.7.511h-1.363v2.386H140V6h2.9a2.457,2.457,0,0,1,1.619.511,1.9,1.9,0,0,1,.6,1.619A2.428,2.428,0,0,1,144.43,9.834Zm-1.108-2.471a1.041,1.041,0,0,0-.767-.256h-1.278v1.96h1.278a1.041,1.041,0,0,0,.767-.256,1.041,1.041,0,0,0,.256-.767A.839.839,0,0,0,143.323,7.363Z" transform="translate(-80.361 -3.87)"/>
      <path id="Path_1013" data-name="Path 1013" class="cls-3" d="M152.142,7.193h-3.578V8.641H151.8V9.834h-3.238v1.7h3.749v1.193H147.2V6h4.942Z" transform="translate(-81.426 -3.87)"/>
    </g>
    <g id="Group_870" data-name="Group 870" transform="translate(71.823 2.13)">
      <path id="Path_1014" data-name="Path 1014" class="cls-3" d="M156.4,6h1.619l2.386,6.731h-1.534l-.426-1.363h-2.471l-.426,1.363H154.1Zm-.17,4.175h1.7l-.852-2.641Z" transform="translate(-154.1 -6)"/>
    </g>
    <g id="Group_871" data-name="Group 871" transform="translate(0 15.677)">
      <path id="Path_1015" data-name="Path 1015" class="cls-3" d="M69.8,21.9h2.982v.511H70.4v1.363h2.13v.511H70.4v1.96h-.6Z" transform="translate(-69.8 -21.9)"/>
      <path id="Path_1016" data-name="Path 1016" class="cls-3" d="M76.186,23.626a1.685,1.685,0,0,1,.426,1.193,2.053,2.053,0,0,1-.341,1.278,1.266,1.266,0,0,1-1.108.511,1.411,1.411,0,0,1-1.022-.426,1.666,1.666,0,0,1-.341-1.193,2.093,2.093,0,0,1,.426-1.278,1.266,1.266,0,0,1,1.108-.511A1.356,1.356,0,0,1,76.186,23.626Zm-.256,2.13a1.536,1.536,0,0,0,.17-.852,1.605,1.605,0,0,0-.17-.682.9.9,0,0,0-.767-.426.691.691,0,0,0-.682.341,1.53,1.53,0,0,0-.256.937,1.439,1.439,0,0,0,.256.852.691.691,0,0,0,.682.341A1.733,1.733,0,0,0,75.93,25.756Z" transform="translate(-70.392 -22.092)"/>
      <path id="Path_1017" data-name="Path 1017" class="cls-3" d="M77.9,23.285h.511v.426a2.259,2.259,0,0,1,.511-.426,1.263,1.263,0,0,1,.6-.085.979.979,0,0,1,.937.511,1.7,1.7,0,0,1,.17.767v1.96h-.511v-1.96a.638.638,0,0,0-.085-.426.515.515,0,0,0-.511-.256h-.341c-.17.085-.256.17-.426.256a.443.443,0,0,0-.17.341v2.215H78.07V23.285Z" transform="translate(-70.999 -22.092)"/>
      <path id="Path_1018" data-name="Path 1018" class="cls-3" d="M83.545,23.178l.341.341V21.9H84.4v4.345h-.511v-.426a1.027,1.027,0,0,1-.426.426,1.231,1.231,0,0,1-.6.17,1.368,1.368,0,0,1-.937-.426A1.685,1.685,0,0,1,81.5,24.8a1.956,1.956,0,0,1,.341-1.193,1.215,1.215,0,0,1,1.022-.511A.905.905,0,0,1,83.545,23.178Zm-1.193,2.386a.691.691,0,0,0,.682.341.643.643,0,0,0,.6-.341,1.531,1.531,0,0,0,.256-.937,1.131,1.131,0,0,0-.256-.852.839.839,0,0,0-1.278.085,1.371,1.371,0,0,0-.256.937A1.189,1.189,0,0,0,82.352,25.564Z" transform="translate(-71.532 -21.9)"/>
      <path id="Path_1019" data-name="Path 1019" class="cls-3" d="M88.086,23.626a1.685,1.685,0,0,1,.426,1.193,2.053,2.053,0,0,1-.341,1.278,1.266,1.266,0,0,1-1.108.511,1.411,1.411,0,0,1-1.022-.426,1.666,1.666,0,0,1-.341-1.193,2.093,2.093,0,0,1,.426-1.278,1.266,1.266,0,0,1,1.108-.511A1.928,1.928,0,0,1,88.086,23.626Zm-.341,2.13a1.536,1.536,0,0,0,.17-.852,1.6,1.6,0,0,0-.17-.682.9.9,0,0,0-.767-.426.691.691,0,0,0-.682.341,1.53,1.53,0,0,0-.256.937,1.439,1.439,0,0,0,.256.852.691.691,0,0,0,.682.341A1.733,1.733,0,0,0,87.745,25.756Z" transform="translate(-72.153 -22.092)"/>
      <path id="Path_1020" data-name="Path 1020" class="cls-3" d="M91.8,21.9h3.152v.511H92.4v1.363h2.386v.511H92.4v1.448h2.641v.511H91.885V21.9Z" transform="translate(-73.056 -21.9)"/>
      <path id="Path_1021" data-name="Path 1021" class="cls-3" d="M96.9,23.3v2.13a.768.768,0,0,0,.085.426.515.515,0,0,0,.511.256.819.819,0,0,0,.767-.511,1.891,1.891,0,0,0,.085-.767V23.3h.511v3.152h-.511v-.426c-.085.085-.17.256-.256.341a.967.967,0,0,1-.682.256,1.1,1.1,0,0,1-.937-.426,1.32,1.32,0,0,1-.17-.682v-2.13h.6Z" transform="translate(-73.722 -22.107)"/>
      <path id="Path_1022" data-name="Path 1022" class="cls-3" d="M100.4,23.285h.511v.6c0-.085.17-.256.341-.426a.773.773,0,0,1,.6-.256h.17v.6h-.17a.663.663,0,0,0-.6.256.773.773,0,0,0-.256.6v1.789h-.511V23.285Z" transform="translate(-74.329 -22.092)"/>
      <path id="Path_1023" data-name="Path 1023" class="cls-3" d="M104.986,23.626a1.685,1.685,0,0,1,.426,1.193,2.053,2.053,0,0,1-.341,1.278,1.266,1.266,0,0,1-1.108.511,1.411,1.411,0,0,1-1.022-.426,1.666,1.666,0,0,1-.341-1.193,2.093,2.093,0,0,1,.426-1.278,1.266,1.266,0,0,1,1.108-.511A1.928,1.928,0,0,1,104.986,23.626Zm-.341,2.13a1.536,1.536,0,0,0,.17-.852,1.605,1.605,0,0,0-.17-.682.9.9,0,0,0-.767-.426.691.691,0,0,0-.682.341,1.531,1.531,0,0,0-.256.937,1.439,1.439,0,0,0,.256.852.691.691,0,0,0,.682.341A1.348,1.348,0,0,0,104.645,25.756Z" transform="translate(-74.655 -22.092)"/>
      <path id="Path_1024" data-name="Path 1024" class="cls-3" d="M106.6,23.285h.511v.426c.085-.17.256-.256.341-.341a1.58,1.58,0,0,1,.6-.17,1.368,1.368,0,0,1,.937.426,1.666,1.666,0,0,1,.341,1.193,1.754,1.754,0,0,1-.511,1.448,1.374,1.374,0,0,1-.767.256,1.231,1.231,0,0,1-.6-.17l-.341-.341V27.63H106.6Zm1.96,2.471a1.37,1.37,0,0,0,.256-.937,1.661,1.661,0,0,0-.085-.682.819.819,0,0,0-.767-.511.791.791,0,0,0-.767.6,1.891,1.891,0,0,0-.085.767,1.263,1.263,0,0,0,.085.6.819.819,0,0,0,.767.511A.643.643,0,0,0,108.56,25.756Z" transform="translate(-75.247 -22.092)"/>
      <path id="Path_1025" data-name="Path 1025" class="cls-3" d="M112.515,23.379a2.259,2.259,0,0,1,.511.426,1.231,1.231,0,0,1,.17.6c0,.17.085.341.085.682H110.9a1.041,1.041,0,0,0,.256.767.839.839,0,0,0,.682.256.967.967,0,0,0,.682-.256.646.646,0,0,0,.17-.341h.511a1.44,1.44,0,0,1-.17.426,1.176,1.176,0,0,1-.256.341,1.373,1.373,0,0,1-.6.341,3.689,3.689,0,0,1-.426.085,1.572,1.572,0,0,1-1.022-.426,1.384,1.384,0,0,1-.426-1.193,2.093,2.093,0,0,1,.426-1.278,1.266,1.266,0,0,1,1.108-.511A.961.961,0,0,1,112.515,23.379Zm.17,1.278a1.232,1.232,0,0,0-.17-.6.869.869,0,0,0-.682-.426.773.773,0,0,0-.6.256.967.967,0,0,0-.256.682h1.7Z" transform="translate(-75.794 -22.101)"/>
      <path id="Path_1026" data-name="Path 1026" class="cls-3" d="M116.786,23.626a1.685,1.685,0,0,1,.426,1.193,2.053,2.053,0,0,1-.341,1.278,1.266,1.266,0,0,1-1.108.511,1.411,1.411,0,0,1-1.022-.426,1.666,1.666,0,0,1-.341-1.193,2.093,2.093,0,0,1,.426-1.278,1.266,1.266,0,0,1,1.108-.511A1.356,1.356,0,0,1,116.786,23.626Zm-.341,2.13a1.536,1.536,0,0,0,.17-.852,1.605,1.605,0,0,0-.17-.682.9.9,0,0,0-.767-.426.691.691,0,0,0-.682.341,1.53,1.53,0,0,0-.256.937,1.439,1.439,0,0,0,.256.852.691.691,0,0,0,.682.341C116.1,26.1,116.36,26.012,116.445,25.756Z" transform="translate(-76.401 -22.092)"/>
      <path id="Path_1027" data-name="Path 1027" class="cls-3" d="M122.045,23.178l.341.341V21.9h.511v4.345h-.511v-.426a1.027,1.027,0,0,1-.426.426,1.232,1.232,0,0,1-.6.17,1.368,1.368,0,0,1-.937-.426A1.685,1.685,0,0,1,120,24.8a1.956,1.956,0,0,1,.341-1.193,1.214,1.214,0,0,1,1.022-.511A.775.775,0,0,1,122.045,23.178Zm-1.108,2.386a.691.691,0,0,0,.682.341.643.643,0,0,0,.6-.341,1.531,1.531,0,0,0,.256-.937,1.131,1.131,0,0,0-.256-.852.839.839,0,0,0-1.278.085,1.37,1.37,0,0,0-.256.937A1.189,1.189,0,0,0,120.937,25.564Z" transform="translate(-77.23 -21.9)"/>
      <path id="Path_1028" data-name="Path 1028" class="cls-3" d="M126.23,23.379a2.259,2.259,0,0,1,.511.426,1.231,1.231,0,0,1,.17.6c0,.17.085.341.085.682h-2.3a1.041,1.041,0,0,0,.256.767.839.839,0,0,0,.682.256.967.967,0,0,0,.682-.256.646.646,0,0,0,.17-.341H127a1.44,1.44,0,0,1-.17.426,1.176,1.176,0,0,1-.256.341,1.373,1.373,0,0,1-.6.341,3.689,3.689,0,0,1-.426.085,1.572,1.572,0,0,1-1.022-.426,1.384,1.384,0,0,1-.426-1.193,2.093,2.093,0,0,1,.426-1.278,1.266,1.266,0,0,1,1.108-.511A.748.748,0,0,1,126.23,23.379Zm.256,1.278a1.232,1.232,0,0,0-.17-.6.869.869,0,0,0-.682-.426.773.773,0,0,0-.6.256.967.967,0,0,0-.256.682h1.7Z" transform="translate(-77.837 -22.101)"/>
      <path id="Path_1029" data-name="Path 1029" class="cls-3" d="M130.4,21.9h1.7a1.589,1.589,0,0,1,1.363.6,2.437,2.437,0,0,1,.426,1.448,3.419,3.419,0,0,1-.256,1.278,1.638,1.638,0,0,1-1.534,1.022h-1.7Zm1.619,3.834a1.081,1.081,0,0,0,.511-.085.873.873,0,0,0,.511-.426,5.873,5.873,0,0,0,.256-.682,3.69,3.69,0,0,1,.085-.426,2.053,2.053,0,0,0-.341-1.278c-.17-.341-.511-.426-1.022-.426H131v3.323Z" transform="translate(-78.769 -21.9)"/>
      <path id="Path_1030" data-name="Path 1030" class="cls-3" d="M137.33,23.379a2.26,2.26,0,0,1,.511.426,1.231,1.231,0,0,1,.17.6c0,.17.085.341.085.682h-2.3a1.041,1.041,0,0,0,.256.767.839.839,0,0,0,.682.256.967.967,0,0,0,.682-.256.646.646,0,0,0,.17-.341h.511a1.439,1.439,0,0,1-.17.426,1.177,1.177,0,0,1-.256.341,1.373,1.373,0,0,1-.6.341,3.69,3.69,0,0,1-.426.085,1.572,1.572,0,0,1-1.022-.426,1.384,1.384,0,0,1-.426-1.193,2.093,2.093,0,0,1,.426-1.278,1.266,1.266,0,0,1,1.108-.511C136.9,23.209,137.074,23.294,137.33,23.379Zm.17,1.278a1.231,1.231,0,0,0-.17-.6.869.869,0,0,0-.682-.426.773.773,0,0,0-.6.256.967.967,0,0,0-.256.682h1.7Z" transform="translate(-79.48 -22.101)"/>
      <path id="Path_1031" data-name="Path 1031" class="cls-3" d="M139.582,25.486a.651.651,0,0,0,.17.426.839.839,0,0,0,.682.256,1.211,1.211,0,0,0,.511-.17.469.469,0,0,0,.256-.426.443.443,0,0,0-.17-.341c-.085-.085-.256-.085-.426-.17l-.426-.085a2.036,2.036,0,0,1-.6-.256.643.643,0,0,1-.341-.6.925.925,0,0,1,.341-.767,1.439,1.439,0,0,1,.852-.256,1.162,1.162,0,0,1,1.022.426.719.719,0,0,1,.17.6h-.511a.646.646,0,0,0-.17-.341c-.085-.17-.341-.17-.682-.17a.638.638,0,0,0-.426.085.426.426,0,0,0,0,.682c.085.085.17.085.341.17l.341.085a1.863,1.863,0,0,1,.767.256.885.885,0,0,1,.341.682,1.041,1.041,0,0,1-.341.767,1.244,1.244,0,0,1-1.022.341c-.511,0-.852-.085-1.022-.341a1.531,1.531,0,0,1-.341-.767h.682Z" transform="translate(-80.027 -22.078)"/>
      <path id="Path_1032" data-name="Path 1032" class="cls-3" d="M144.5,24.563c.085,0,.17-.085.256-.17v-.17a.651.651,0,0,0-.17-.426c-.085-.085-.341-.085-.511-.085a.663.663,0,0,0-.6.256c-.085.085-.085.17-.085.341h-.511a1.136,1.136,0,0,1,.341-.852,1.439,1.439,0,0,1,.852-.256,3.063,3.063,0,0,1,.937.17.691.691,0,0,1,.341.682v1.96c0,.085.085.085.17.085h.17v.426c-.085,0-.17,0-.17.085s-.085,0-.17,0a.651.651,0,0,1-.426-.17.313.313,0,0,1-.085-.256.851.851,0,0,1-.426.341,1.605,1.605,0,0,1-.682.17.965.965,0,0,1-.682-1.619,1.713,1.713,0,0,1,.682-.341ZM143.4,26.012a.651.651,0,0,0,.426.17,1.211,1.211,0,0,0,.511-.17.759.759,0,0,0,.426-.682V24.9c-.085,0-.17.085-.256.085s-.17.085-.341.085h-.341a3.688,3.688,0,0,0-.426.085.469.469,0,0,0-.256.426A1.863,1.863,0,0,0,143.4,26.012Z" transform="translate(-80.605 -22.092)"/>
      <path id="Path_1033" data-name="Path 1033" class="cls-3" d="M146.8,23.285h.511v.6c0-.085.17-.256.341-.426a.773.773,0,0,1,.6-.256h.17v.6h-.17a.663.663,0,0,0-.6.256.773.773,0,0,0-.256.6v1.789h-.511V23.285Z" transform="translate(-81.197 -22.092)"/>
      <path id="Path_1034" data-name="Path 1034" class="cls-3" d="M149.2,23.285h.511v.6c0-.085.17-.256.341-.426a.773.773,0,0,1,.6-.256h.17v.6h-.17a.663.663,0,0,0-.6.256.773.773,0,0,0-.256.6v1.789h-.511V23.285Z" transform="translate(-81.552 -22.092)"/>
      <path id="Path_1035" data-name="Path 1035" class="cls-3" d="M153.786,23.626a1.685,1.685,0,0,1,.426,1.193,2.054,2.054,0,0,1-.341,1.278,1.266,1.266,0,0,1-1.108.511,1.411,1.411,0,0,1-1.022-.426,1.666,1.666,0,0,1-.341-1.193,2.093,2.093,0,0,1,.426-1.278,1.266,1.266,0,0,1,1.108-.511A1.356,1.356,0,0,1,153.786,23.626Zm-.341,2.13a1.536,1.536,0,0,0,.17-.852,1.605,1.605,0,0,0-.17-.682.9.9,0,0,0-.767-.426.691.691,0,0,0-.682.341,1.531,1.531,0,0,0-.256.937,1.439,1.439,0,0,0,.256.852.691.691,0,0,0,.682.341A1.348,1.348,0,0,0,153.445,25.756Z" transform="translate(-81.878 -22.092)"/>
      <path id="Path_1036" data-name="Path 1036" class="cls-3" d="M155.5,21.9h.511v4.345H155.5Z" transform="translate(-82.484 -21.9)"/>
      <path id="Path_1037" data-name="Path 1037" class="cls-3" d="M157,21.9h.511v4.345H157Z" transform="translate(-82.706 -21.9)"/>
      <path id="Path_1038" data-name="Path 1038" class="cls-3" d="M160.886,23.626a1.685,1.685,0,0,1,.426,1.193,2.053,2.053,0,0,1-.341,1.278,1.266,1.266,0,0,1-1.108.511,1.411,1.411,0,0,1-1.022-.426,1.666,1.666,0,0,1-.341-1.193,2.093,2.093,0,0,1,.426-1.278,1.266,1.266,0,0,1,1.108-.511A1.928,1.928,0,0,1,160.886,23.626Zm-.341,2.13a1.536,1.536,0,0,0,.17-.852,1.605,1.605,0,0,0-.17-.682.9.9,0,0,0-.767-.426.691.691,0,0,0-.682.341,1.531,1.531,0,0,0-.256.937,1.439,1.439,0,0,0,.256.852.691.691,0,0,0,.682.341A1.733,1.733,0,0,0,160.545,25.756Z" transform="translate(-82.928 -22.092)"/>
      <path id="Path_1039" data-name="Path 1039" class="cls-3" d="M164.7,21.9h1.96a1.7,1.7,0,0,1,.767.17.965.965,0,0,1,.6,1.022,1.6,1.6,0,0,1-.17.682,1.027,1.027,0,0,1-.426.426,1.176,1.176,0,0,1,.341.256.72.72,0,0,1,.17.511V25.9c0,.17.085.256.17.256v.085h-.6a.264.264,0,0,0-.085-.17V24.967a.57.57,0,0,0-.341-.6c-.085-.085-.256-.085-.511-.085H165.3v1.96h-.6Zm1.874,2.045a.993.993,0,0,0,.6-.17.974.974,0,0,0,.256-.6c0-.341-.085-.511-.341-.6a.638.638,0,0,0-.426-.085H165.3v1.448h1.278Z" transform="translate(-83.846 -21.9)"/>
      <path id="Path_1040" data-name="Path 1040" class="cls-3" d="M171.53,23.379a2.259,2.259,0,0,1,.511.426,1.231,1.231,0,0,1,.17.6c0,.17.085.341.085.682H170a1.041,1.041,0,0,0,.256.767.839.839,0,0,0,.682.256.967.967,0,0,0,.682-.256.646.646,0,0,0,.17-.341h.511a1.44,1.44,0,0,1-.17.426,1.175,1.175,0,0,1-.256.341,1.373,1.373,0,0,1-.6.341,3.688,3.688,0,0,1-.426.085,1.572,1.572,0,0,1-1.022-.426,1.384,1.384,0,0,1-.426-1.193,2.093,2.093,0,0,1,.426-1.278,1.266,1.266,0,0,1,1.108-.511C171.1,23.209,171.274,23.294,171.53,23.379Zm.17,1.278a1.231,1.231,0,0,0-.17-.6.869.869,0,0,0-.682-.426.773.773,0,0,0-.6.256.967.967,0,0,0-.256.682h1.7Z" transform="translate(-84.542 -22.101)"/>
      <path id="Path_1041" data-name="Path 1041" class="cls-3" d="M175.274,23.465l.341.341v-.426h.511v2.9a2.63,2.63,0,0,1-.17.937,1.313,1.313,0,0,1-1.278.682,1.439,1.439,0,0,1-.852-.256,1.171,1.171,0,0,1-.426-.682h.511a.443.443,0,0,0,.17.341.993.993,0,0,0,.6.17c.426,0,.682-.17.767-.426a2.649,2.649,0,0,0,.085-.937c-.085.17-.256.256-.341.341a1.263,1.263,0,0,1-.6.085,1.094,1.094,0,0,1-.852-.341A1.666,1.666,0,0,1,173.4,25a2.093,2.093,0,0,1,.426-1.278,1.085,1.085,0,0,1,.937-.426C174.848,23.209,175.1,23.294,175.274,23.465Zm.085.511a.773.773,0,0,0-.6-.256.819.819,0,0,0-.767.511,1.891,1.891,0,0,0-.085.767,1.439,1.439,0,0,0,.256.852.773.773,0,0,0,.6.256.745.745,0,0,0,.767-.511,1.6,1.6,0,0,0,.17-.682A2.4,2.4,0,0,0,175.36,23.976Z" transform="translate(-85.134 -22.101)"/>
      <path id="Path_1042" data-name="Path 1042" class="cls-3" d="M177.5,21.9h.511v.6H177.5Zm0,1.193h.511v3.152H177.5Z" transform="translate(-85.741 -21.9)"/>
      <path id="Path_1043" data-name="Path 1043" class="cls-3" d="M181.286,23.626a1.685,1.685,0,0,1,.426,1.193,2.053,2.053,0,0,1-.341,1.278,1.266,1.266,0,0,1-1.108.511,1.411,1.411,0,0,1-1.022-.426,1.666,1.666,0,0,1-.341-1.193,2.093,2.093,0,0,1,.426-1.278,1.266,1.266,0,0,1,1.108-.511A1.356,1.356,0,0,1,181.286,23.626Zm-.341,2.13a1.536,1.536,0,0,0,.17-.852,1.605,1.605,0,0,0-.17-.682.9.9,0,0,0-.767-.426.691.691,0,0,0-.682.341,1.53,1.53,0,0,0-.256.937,1.439,1.439,0,0,0,.256.852.691.691,0,0,0,.682.341C180.6,26.1,180.86,26.012,180.945,25.756Z" transform="translate(-85.948 -22.092)"/>
      <path id="Path_1044" data-name="Path 1044" class="cls-3" d="M183,23.285h.511v.426a2.258,2.258,0,0,1,.511-.426,1.263,1.263,0,0,1,.6-.085.979.979,0,0,1,.937.511,1.7,1.7,0,0,1,.17.767v1.96h-.511v-1.96a.638.638,0,0,0-.085-.426.515.515,0,0,0-.511-.256h-.341c-.17.085-.256.17-.426.256a.443.443,0,0,0-.17.341v2.215H183Z" transform="translate(-86.555 -22.092)"/>
      <path id="Path_1045" data-name="Path 1045" class="cls-3" d="M188.6,24.563c.085,0,.17-.085.256-.17v-.17a.651.651,0,0,0-.17-.426c-.085-.085-.341-.085-.511-.085a.663.663,0,0,0-.6.256c-.085.085-.085.17-.085.341h-.511a1.136,1.136,0,0,1,.341-.852,1.439,1.439,0,0,1,.852-.256,3.063,3.063,0,0,1,.937.17.691.691,0,0,1,.341.682v1.96c0,.085.085.085.17.085h.17v.426c-.085,0-.17,0-.17.085s-.085,0-.17,0a.651.651,0,0,1-.426-.17.313.313,0,0,1-.085-.256.851.851,0,0,1-.426.341,1.6,1.6,0,0,1-.682.17.965.965,0,0,1-.682-1.619,1.713,1.713,0,0,1,.682-.341ZM187.5,26.012a.651.651,0,0,0,.426.17,1.211,1.211,0,0,0,.511-.17.759.759,0,0,0,.426-.682V24.9c-.085,0-.17.085-.256.085s-.17.085-.341.085h-.341a3.689,3.689,0,0,0-.426.085.469.469,0,0,0-.256.426A1.861,1.861,0,0,0,187.5,26.012Z" transform="translate(-87.132 -22.092)"/>
      <path id="Path_1046" data-name="Path 1046" class="cls-3" d="M190.9,21.9h.511v4.345H190.9Z" transform="translate(-87.724 -21.9)"/>
    </g>
    <g id="Group_872" data-name="Group 872" transform="translate(0.596 23.856)">
      <path id="Path_1047" data-name="Path 1047" class="cls-3" d="M70.585,32.452c.085-.341.256-.767.682-.852l-.085.256c-.17.085-.256.256-.341.6h.17l-.085.6H70.5Zm.852,0c.085-.341.256-.767.682-.852l-.085.256c-.17.085-.256.256-.341.6h.17l-.085.6h-.426Z" transform="translate(-70.5 -31.515)"/>
      <path id="Path_1048" data-name="Path 1048" class="cls-3" d="M73.174,31.5H73.6l-.682,3.323c-.17.682.085,1.022.682,1.022s.937-.341,1.108-1.022l.682-3.323h.426l-.682,3.323a1.507,1.507,0,0,1-1.619,1.363c-.852,0-1.193-.426-1.022-1.363Z" transform="translate(-70.789 -31.5)"/>
      <path id="Path_1049" data-name="Path 1049" class="cls-3" d="M76.767,32.885h.341l-.085.511h0a1.443,1.443,0,0,1,1.022-.6c.511,0,.852.256.682.937l-.511,2.556h-.426l.511-2.471c.085-.511-.085-.682-.426-.682a.992.992,0,0,0-.937.852l-.511,2.3H76Z" transform="translate(-71.314 -31.692)"/>
      <path id="Path_1050" data-name="Path 1050" class="cls-3" d="M79.808,33.908A1.28,1.28,0,0,1,81.086,32.8c.682,0,.852.341.767.937l-.426,2.045c-.085.17,0,.256.17.256h.085l-.085.256h-.17c-.341,0-.511-.085-.426-.426v-.085h0a1.113,1.113,0,0,1-1.022.6c-.6,0-.767-.341-.682-.937a1.084,1.084,0,0,1,.852-.937l.767-.17c.256-.085.341-.17.426-.511.085-.426-.085-.6-.426-.6-.426,0-.682.256-.852.767h-.256Zm1.534.511h0a2.836,2.836,0,0,1-.511.256h-.256a.916.916,0,0,0-.767.682c-.085.426.085.682.426.682.511,0,.852-.341,1.022-.937Z" transform="translate(-71.799 -31.692)"/>
      <path id="Path_1051" data-name="Path 1051" class="cls-3" d="M85.152,32.885h.341l-.085.511h0a1.3,1.3,0,0,1,1.022-.6.538.538,0,0,1,.6.6h0a1.182,1.182,0,0,1,1.022-.6c.511,0,.767.256.6.852l-.511,2.641h-.426l.511-2.556c.085-.426-.085-.6-.426-.6a.913.913,0,0,0-.852.852l-.511,2.3H86l.511-2.556c.085-.426-.085-.6-.426-.6a.913.913,0,0,0-.852.852l-.511,2.3H84.3Z" transform="translate(-72.543 -31.692)"/>
      <path id="Path_1052" data-name="Path 1052" class="cls-3" d="M90.008,33.908A1.28,1.28,0,0,1,91.286,32.8c.682,0,.852.341.767.937l-.426,2.045c-.085.17,0,.256.17.256h.085l-.085.256h-.17c-.341,0-.511-.085-.426-.426v-.085h0a1.113,1.113,0,0,1-1.022.6c-.6,0-.767-.341-.682-.937a1.084,1.084,0,0,1,.852-.937l.767-.17c.256-.085.341-.17.426-.511.085-.426-.085-.6-.426-.6-.426,0-.682.256-.852.767h-.256Zm1.534.511h0a2.837,2.837,0,0,1-.511.256h-.256a.916.916,0,0,0-.767.682c-.085.426.085.682.426.682.511,0,.852-.341,1.022-.937Z" transform="translate(-73.309 -31.692)"/>
      <path id="Path_1053" data-name="Path 1053" class="cls-3" d="M93.567,32.885h.341l-.085.511h0a1.443,1.443,0,0,1,1.022-.6c.511,0,.852.256.682.937l-.511,2.556h-.426l.511-2.471c.085-.511-.085-.682-.426-.682a.992.992,0,0,0-.937.852l-.511,2.3H92.8Z" transform="translate(-73.801 -31.692)"/>
      <path id="Path_1054" data-name="Path 1054" class="cls-3" d="M98.515,35.186a1.366,1.366,0,0,1-1.363,1.193c-.682,0-1.022-.511-.767-1.789q.383-1.789,1.534-1.789c.767,0,1.022.511.767,1.7v.17H96.811v.17c-.17,1.022.085,1.278.426,1.278.426,0,.682-.256.937-.852h.341Zm-.17-.852c.17-.852,0-1.193-.511-1.193s-.767.341-.937,1.193Z" transform="translate(-74.319 -31.692)"/>
      <path id="Path_1055" data-name="Path 1055" class="cls-3" d="M100.1,32.885h.426l-.085.511h0a1.3,1.3,0,0,1,1.022-.6h.17l-.085.426h-.17a1.151,1.151,0,0,0-1.022.937l-.426,2.13H99.5Z" transform="translate(-74.792 -31.692)"/>
      <path id="Path_1056" data-name="Path 1056" class="cls-3" d="M101.908,33.908a1.28,1.28,0,0,1,1.278-1.108c.682,0,.852.341.767.937l-.426,2.045c-.085.17,0,.256.17.256h.085l-.085.256h-.17c-.341,0-.511-.085-.426-.426v-.085h0a1.112,1.112,0,0,1-1.022.6c-.6,0-.767-.341-.682-.937a1.084,1.084,0,0,1,.852-.937l.767-.17c.256-.085.341-.17.426-.511.085-.426-.085-.6-.426-.6-.426,0-.682.256-.852.767h-.256Zm1.534.511h0a2.837,2.837,0,0,1-.511.256l-.341.085a.916.916,0,0,0-.767.682c-.085.426.085.682.426.682.511,0,.852-.341,1.022-.937Z" transform="translate(-75.07 -31.692)"/>
      <path id="Path_1057" data-name="Path 1057" class="cls-3" d="M108.485,35.6h0a1.107,1.107,0,0,1-1.022.682c-.767,0-.937-.6-.682-1.789s.682-1.789,1.448-1.789a.608.608,0,0,1,.682.6h0l.341-1.7h.426l-.937,4.6H108.4Zm-.852.341c.426,0,.767-.17,1.022-1.448s-.085-1.448-.426-1.448c-.426,0-.767.17-1.022,1.448C106.866,35.69,107.207,35.945,107.633,35.945Z" transform="translate(-75.854 -31.515)"/>
      <path id="Path_1058" data-name="Path 1058" class="cls-3" d="M112.215,35.186a1.366,1.366,0,0,1-1.363,1.193c-.682,0-1.022-.511-.767-1.789q.383-1.789,1.534-1.789c.767,0,1.022.511.767,1.7v.17h-1.874v.17c-.17,1.022.085,1.278.426,1.278.426,0,.682-.256.937-.852h.341Zm-.17-.852c.17-.852,0-1.193-.511-1.193s-.767.341-.937,1.193Z" transform="translate(-76.346 -31.692)"/>
      <path id="Path_1059" data-name="Path 1059" class="cls-3" d="M115.822,31.5h.426l-.341,1.7h0a1.048,1.048,0,0,1,.937-.6c.511,0,.852.256.682.937l-.511,2.556h-.426l.511-2.471c.085-.511-.085-.682-.426-.682a.992.992,0,0,0-.937.852l-.511,2.3H114.8Z" transform="translate(-77.057 -31.5)"/>
      <path id="Path_1060" data-name="Path 1060" class="cls-3" d="M118.708,33.908a1.281,1.281,0,0,1,1.278-1.108c.682,0,.852.341.767.937l-.426,2.045c-.085.17,0,.256.17.256h.085l-.085.256h-.17c-.341,0-.511-.085-.426-.426v-.085h0a1.113,1.113,0,0,1-1.022.6c-.6,0-.767-.341-.682-.937a1.084,1.084,0,0,1,.852-.937l.767-.17c.256-.085.341-.17.426-.511.085-.426-.085-.6-.426-.6-.426,0-.682.256-.852.767h-.256Zm1.534.511h0a2.836,2.836,0,0,1-.511.256l-.341.085a.916.916,0,0,0-.767.682c-.085.426.085.682.426.682.511,0,.852-.341,1.022-.937Z" transform="translate(-77.556 -31.692)"/>
      <path id="Path_1061" data-name="Path 1061" class="cls-3" d="M123.815,35.186a1.366,1.366,0,0,1-1.363,1.193c-.682,0-1.022-.511-.767-1.789q.383-1.789,1.534-1.789c.682,0,.937.426.852,1.108h-.426q.128-.767-.511-.767c-.426,0-.852.256-1.108,1.448-.256,1.278.085,1.448.426,1.448.426,0,.682-.256.852-.852h.511Z" transform="translate(-78.063 -31.692)"/>
      <path id="Path_1062" data-name="Path 1062" class="cls-3" d="M126.915,35.186a1.366,1.366,0,0,1-1.363,1.193c-.682,0-1.022-.511-.767-1.789q.383-1.789,1.534-1.789c.767,0,1.022.511.767,1.7v.17h-1.874v.17c-.17,1.022.085,1.278.426,1.278.426,0,.682-.256.937-.852h.341Zm-.17-.852c.17-.852,0-1.193-.511-1.193s-.767.341-.937,1.193Z" transform="translate(-78.522 -31.692)"/>
      <path id="Path_1063" data-name="Path 1063" class="cls-3" d="M128.5,32.885h.426l-.085.511h0a1.3,1.3,0,0,1,1.022-.6h.17l-.085.426h-.17a1.151,1.151,0,0,0-1.022.937l-.426,2.13H127.9Z" transform="translate(-78.996 -31.692)"/>
      <path id="Path_1064" data-name="Path 1064" class="cls-3" d="M132.637,31.5h2.3l-.085.341h-1.874l-.341,1.7h1.7l-.085.341h-1.7l-.426,1.874h1.96L134,36.1h-2.3Z" transform="translate(-79.558 -31.5)"/>
      <path id="Path_1065" data-name="Path 1065" class="cls-3" d="M135.8,32.9h.426l-.511,2.386c-.085.6,0,.767.426.767a.992.992,0,0,0,.937-.852l.511-2.3h.426l-.767,3.408h-.341L137,35.8h0a1.443,1.443,0,0,1-1.022.6c-.511,0-.852-.256-.682-.937Z" transform="translate(-80.083 -31.707)"/>
      <path id="Path_1066" data-name="Path 1066" class="cls-3" d="M139.1,32.885h.426l-.085.511h0a1.3,1.3,0,0,1,1.022-.6h.17l-.085.426h-.17a1.151,1.151,0,0,0-1.022.937l-.426,2.13H138.5Z" transform="translate(-80.565 -31.692)"/>
      <path id="Path_1067" data-name="Path 1067" class="cls-3" d="M142.219,32.8q1.15,0,.767,1.789c-.256,1.193-.852,1.789-1.534,1.789s-1.022-.6-.767-1.789S141.452,32.8,142.219,32.8Zm-.682,3.323c.426,0,.852-.341,1.108-1.448s0-1.448-.426-1.448-.852.341-1.108,1.448C140.856,35.7,141.111,36.123,141.537,36.123Z" transform="translate(-80.876 -31.692)"/>
      <path id="Path_1068" data-name="Path 1068" class="cls-3" d="M144.322,32.885h.341l-.085.511h0a1.048,1.048,0,0,1,.937-.6c.767,0,.937.6.682,1.789s-.682,1.789-1.448,1.789a.608.608,0,0,1-.682-.6h0l-.341,1.619H143.3Zm1.108.256a.643.643,0,0,0-.6.341,2.614,2.614,0,0,0-.511,1.193c-.256,1.278.085,1.448.426,1.448.426,0,.767-.17,1.022-1.448C146.112,33.4,145.771,33.141,145.43,33.141Z" transform="translate(-81.275 -31.692)"/>
      <path id="Path_1069" data-name="Path 1069" class="cls-3" d="M147.408,33.908a1.28,1.28,0,0,1,1.278-1.108c.682,0,.852.341.767.937l-.426,2.045c-.085.17,0,.256.17.256h.085l-.085.256h-.17c-.341,0-.511-.085-.426-.426v-.085h0a1.112,1.112,0,0,1-1.022.6c-.6,0-.767-.341-.682-.937a1.084,1.084,0,0,1,.852-.937l.767-.17c.256-.085.341-.17.426-.511.085-.426-.085-.6-.426-.6-.426,0-.682.256-.852.767h-.256Zm1.619.511h0a2.836,2.836,0,0,1-.511.256l-.341.085a.916.916,0,0,0-.767.682c-.085.426.085.682.426.682.511,0,.852-.341,1.022-.937Z" transform="translate(-81.804 -31.692)"/>
    </g>
    <g id="Group_873" data-name="Group 873" transform="translate(69.267 23.856)">
      <path id="Path_1070" data-name="Path 1070" class="cls-3" d="M151.526,31.5h.426l-.17.682c-.085.341-.256.767-.682.852l.085-.256c.17-.085.256-.256.341-.6h-.17Zm.852,0h.426l-.17.682c-.085.341-.256.767-.682.852l.085-.256c.17-.085.256-.256.341-.6h-.17Z" transform="translate(-151.1 -31.5)"/>
    </g>
  </g>
</svg>
